<?xml version="1.0" encoding="utf-8"?>
<!-- Generator: Adobe Illustrator 22.1.0, SVG Export Plug-In . SVG Version: 6.00 Build 0)  -->
<svg version="1.1" id="Layer_1" xmlns="http://www.w3.org/2000/svg" xmlns:xlink="http://www.w3.org/1999/xlink" x="0px" y="0px"
	 viewBox="0 0 48 48" style="enable-background:new 0 0 48 48;" xml:space="preserve">
<style type="text/css">
	.st0{fill:#2E2E43;}
	.st1{opacity:0.98;}
	.st2{opacity:0.98;fill:#FFFFFF;}
	.st3{fill:#660099;}
	.st4{fill:#64BFDC;}
	.st5{fill:#902889;}
</style>
<path class="st3" d="M33.5,19.8c0-4.4-3-7.6-7.9-7.6h-11v23.4h5v-8.4h3.7l4.6,8.4h5.7l-5.3-8.9C30.9,26.2,33.5,24,33.5,19.8z"/>
<polygon class="st4" points="14.7,4.8 14.7,0 0.2,0 0.2,2.4 0.2,4.8 0.2,43.2 0.2,45.6 0.2,48 14.7,48 14.7,43.2 5,43.2 5,4.8 "/>
<polygon class="st4" points="33.5,4.8 33.5,0 48,0 48,2.4 48,4.8 48,43.2 48,45.6 48,48 33.5,48 33.5,43.2 43.2,43.2 43.2,4.8 "/>
</svg>
